# Blender 4.1.1
# www.blender.org
mtllib Double Ramp Northeast And Southeast.mtl
o Cube.007
v 1.000000 -1.000000 -1.000000
v 1.000000 -1.000000 1.000000
v -1.000000 -1.000000 -1.000000
v -1.000000 0.000000 1.000000
v -1.000000 -1.000000 1.000000
vn -0.0000 0.8944 -0.4472
vn -0.0000 -0.0000 1.0000
vn 0.4472 0.8944 -0.0000
vn -0.0000 -1.0000 -0.0000
vn -1.0000 -0.0000 -0.0000
vt 0.125000 0.500000
vt 0.000000 0.000000
vt 0.375000 0.500000
vt 0.125000 0.750000
vt 0.375000 0.750000
s 0
usemtl Material
f 3/1/1 4/2/1 1/3/1
f 4/2/2 5/4/2 2/5/2
f 4/2/3 2/5/3 1/3/3
f 3/1/4 1/3/4 2/5/4 5/4/4
f 5/4/5 4/2/5 3/1/5
