# Blender 4.1.1
# www.blender.org
mtllib Concave South Slope.mtl
o Cube.021
v 1.000000 0.000000 -1.000000
v 1.000000 -1.000000 -1.000000
v 1.000000 -1.000000 1.000000
v -1.000000 0.000000 -1.000000
v -1.000000 -1.000000 -1.000000
v -1.000000 0.000000 1.000000
v -1.000000 -1.000000 1.000000
vn -0.0000 -0.0000 1.0000
vn 1.0000 -0.0000 -0.0000
vn -1.0000 -0.0000 -0.0000
vn -0.0000 -1.0000 -0.0000
vn -0.0000 0.8944 0.4472
vn -0.0000 -0.0000 -1.0000
vn 0.4472 0.8944 -0.0000
vt 0.625000 0.000000
vt 0.125000 0.750000
vt 0.375000 0.750000
vt 0.375000 0.500000
vt 0.625000 0.500000
vt 0.375000 0.000000
vt 0.625000 0.250000
vt 0.375000 0.250000
vt 0.125000 0.500000
s 0
usemtl Material
f 6/1/1 7/2/1 3/3/1
f 2/4/2 1/5/2 3/3/2
f 7/6/3 6/1/3 4/7/3 5/8/3
f 5/9/4 2/4/4 3/3/4 7/2/4
f 3/3/5 1/5/5 4/7/5
f 5/8/6 4/7/6 1/5/6 2/4/6
f 3/3/7 4/7/7 6/1/7
